<svg width="100" height="101" viewBox="0 0 100 101" fill="none" xmlns="http://www.w3.org/2000/svg">
<rect width="100" height="100" transform="translate(0 0.5)" fill="#FCF8EF"/>
<circle cx="50" cy="85.6247" r="7.41109" fill="#9E131E" stroke="black" stroke-width="0.3"/>
<circle cx="37.7191" cy="71.7244" r="3.5" fill="black"/>
<circle cx="61.2809" cy="71.7244" r="3.5" fill="black"/>
<circle cx="36.9691" cy="70.9744" r="0.75" fill="white"/>
<circle cx="60.5309" cy="70.9744" r="0.75" fill="white"/>
<circle cx="38.7191" cy="71.7244" r="0.5" fill="white"/>
<circle cx="62.2809" cy="71.7244" r="0.5" fill="white"/>
<path d="M73.7285 24.7442C71.8938 39.6071 64.7078 52.6121 61.3442 57.2567L65.4723 59.5791C66.6954 57.7212 69.5087 53.6339 70.9764 52.1476C72.8111 50.2898 76.4806 41.465 81.9847 38.6782C87.4888 35.8914 88.8649 34.9625 86.5715 34.0335C84.2781 33.1046 77.3979 35.8914 78.3153 34.9625C79.2326 34.0335 89.3236 17.3128 88.4062 16.8484C87.4888 16.3839 84.2781 18.7062 81.9847 21.0285C79.6913 23.3509 79.6913 23.3509 80.15 21.0285C80.6087 18.7062 76.4806 7.09461 73.7285 5.70122C70.9764 4.30783 76.0219 6.16568 73.7285 24.7442Z" fill="#AC896D" stroke="black" stroke-width="0.5"/>
<path d="M74.0356 24.9659C76.3029 6.69746 71.3911 4.69763 73.9516 5.99911C74.324 7.18677 76.3896 11.9826 74.7514 25.1515C72.9127 39.9313 65.7576 52.8794 62.3198 57.6446L61.6616 57.2765C65.0224 52.6607 72.2024 39.7362 74.0356 24.9659ZM79.5952 35.1456C81.4581 34.7006 85.2725 33.5553 86.8676 34.1973C86.9723 34.2395 87.0693 34.2829 87.1586 34.3253C84.443 33.9294 78.5295 36.2672 79.3891 35.4034C79.4357 35.3566 79.5043 35.2684 79.5952 35.1456ZM82.2846 21.2735C84.5761 18.9657 87.785 16.6577 88.7016 17.1192C88.7418 17.1396 88.7588 17.1915 88.7582 17.2716C87.3737 17.7184 84.943 19.5702 83.0991 21.4229C81.2209 23.3101 80.8638 23.669 81.0424 22.4991C81.3494 22.2124 81.757 21.8049 82.2846 21.2735Z" fill="#685040"/>
<path d="M86.0604 34.0554C86.249 34.0863 86.4211 34.1309 86.5731 34.1921C88.8646 35.1153 87.4896 36.0389 81.9901 38.8083C76.4907 41.578 72.8242 50.3478 70.991 52.1941C69.5244 53.6714 66.7141 57.7327 65.492 59.5788L64.7449 59.1609C66.0891 57.1603 68.6516 53.507 70.034 52.1179C71.889 50.254 75.599 41.4005 81.1639 38.6042C86.5082 35.9192 88.0036 34.9532 86.0604 34.0554ZM87.6707 17.1277C87.9824 17.0378 88.2352 17.0275 88.407 17.114C89.2791 17.5565 80.1563 32.6749 78.5086 34.8855C77.6431 35.0941 77.1646 35.1665 77.4539 34.8757C78.3054 34.0201 86.9725 19.8124 87.6707 17.1277ZM73.1785 5.75266C73.3107 5.81523 73.4948 5.91284 73.741 6.03684C76.4908 7.42178 80.6153 18.9605 80.157 21.2683C80.0988 21.5613 80.0483 21.8172 80.0086 22.0359C78.8627 23.1246 78.9411 22.7465 79.3094 20.8962C79.7534 18.6656 75.9456 7.89377 73.1785 5.75266Z" fill="#D8B8A1"/>
<path d="M25.2715 24.7442C27.1062 39.6071 34.2922 52.6121 37.6558 57.2567L33.5277 59.5791C32.3046 57.7212 29.4913 53.6339 28.0236 52.1476C26.1889 50.2898 22.5194 41.465 17.0153 38.6782C11.5112 35.8914 10.1351 34.9625 12.4285 34.0335C14.7219 33.1046 21.6021 35.8914 20.6847 34.9625C19.7674 34.0335 9.67645 17.3128 10.5938 16.8484C11.5112 16.3839 14.7219 18.7062 17.0153 21.0285C19.3087 23.3509 19.3087 23.3509 18.85 21.0285C18.3913 18.7062 22.5194 7.09461 25.2715 5.70122C28.0236 4.30783 22.9781 6.16568 25.2715 24.7442Z" fill="#AC896D" stroke="black" stroke-width="0.5"/>
<path d="M24.9644 24.9659C22.6971 6.69743 27.6089 4.69758 25.0484 5.99907C24.6761 7.18667 22.6104 11.9825 24.2486 25.1514C26.0873 39.9313 33.2424 52.8793 36.6802 57.6446L37.3384 57.2764C33.9776 52.6607 26.7976 39.7362 24.9644 24.9659ZM19.4048 35.1456C17.5419 34.7005 13.7275 33.5553 12.1324 34.1973C12.0277 34.2395 11.9307 34.2829 11.8414 34.3252C14.557 33.9294 20.4706 36.2673 19.6109 35.4034C19.5643 35.3565 19.4958 35.2684 19.4048 35.1456ZM16.7154 21.2735C14.4239 18.9656 11.215 16.6576 10.2984 17.1192C10.2582 17.1395 10.2412 17.1915 10.2418 17.2715C11.6262 17.7183 14.057 19.5701 15.9009 21.4229C17.7791 23.3101 18.1362 23.669 17.9576 22.4991C17.6506 22.2124 17.243 21.8049 16.7154 21.2735Z" fill="#685040"/>
<path d="M12.9396 34.0554C12.751 34.0863 12.5789 34.1309 12.4269 34.1921C10.1354 35.1153 11.5104 36.0389 17.0099 38.8083C22.5093 41.578 26.1758 50.3478 28.009 52.1941C29.4756 53.6714 32.2859 57.7327 33.508 59.5788L34.2551 59.1609C32.9109 57.1603 30.3484 53.507 28.966 52.1179C27.111 50.254 23.401 41.4005 17.8361 38.6042C12.4918 35.9192 10.9964 34.9532 12.9396 34.0554ZM11.3293 17.1277C11.0176 17.0378 10.7648 17.0275 10.593 17.114C9.72093 17.5565 18.8437 32.6749 20.4914 34.8855C21.3569 35.0941 21.8354 35.1665 21.5461 34.8757C20.6946 34.0201 12.0275 19.8124 11.3293 17.1277ZM25.8215 5.75266C25.6893 5.81523 25.5052 5.91284 25.259 6.03684C22.5092 7.42178 18.3847 18.9605 18.843 21.2683C18.9012 21.5613 18.9517 21.8172 18.9914 22.0359C20.1373 23.1246 20.0589 22.7465 19.6906 20.8962C19.2466 18.6656 23.0544 7.89377 25.8215 5.75266Z" fill="#D8B8A1"/>
<circle cx="49.5638" cy="85.3631" r="6.67831" fill="#BB1917"/>
<path d="M46.2114 80.9088C44.4285 81.371 43.3631 82.5768 43.671 85.1172L43.672 85.1195C43.74 85.2726 43.8008 85.4094 44.1072 85.3482C44.4921 85.2712 44.6461 84.0908 45.108 83.2696C45.5699 82.4485 47.5971 80.5496 46.2114 80.9088Z" fill="white" fill-opacity="0.53"/>
</svg>
