<svg width="188" height="188" viewBox="0 0 188 188" fill="none" xmlns="http://www.w3.org/2000/svg">
<path d="M96.2593 19.1029L97.8977 2.82151L103.399 3.3751C104.676 3.50363 105.697 3.83924 106.462 4.38193C107.232 4.91986 107.774 5.5981 108.088 6.41665C108.402 7.23521 108.51 8.12413 108.414 9.08342C108.317 10.0427 108.033 10.8948 107.562 11.6397C107.096 12.3852 106.435 12.9503 105.577 13.3351C104.719 13.7146 103.658 13.8406 102.391 13.7132L98.4477 13.3164L98.6237 11.5674L102.503 11.9578C103.378 12.0458 104.095 11.9654 104.656 11.7166C105.216 11.4679 105.641 11.0985 105.931 10.6084C106.228 10.1135 106.408 9.54012 106.474 8.88823C106.54 8.23634 106.476 7.64108 106.284 7.10245C106.097 6.56436 105.751 6.12263 105.245 5.77727C104.74 5.4266 104.044 5.20674 103.159 5.11768L99.6932 4.76889L98.2309 19.3013L96.2593 19.1029Z" fill="white"/>
<path d="M115.514 22.7125C114.454 22.3889 113.601 21.8528 112.956 21.1042C112.315 20.3572 111.909 19.4618 111.737 18.4181C111.571 17.376 111.673 16.2486 112.043 15.0361C112.417 13.8135 112.964 12.8139 113.686 12.0373C114.413 11.2623 115.25 10.7439 116.199 10.4823C117.153 10.2222 118.16 10.2539 119.219 10.5775C120.279 10.9011 121.129 11.4364 121.77 12.1834C122.416 12.932 122.821 13.83 122.986 14.8772C123.156 15.926 123.054 17.0618 122.681 18.2844C122.31 19.4969 121.763 20.4881 121.037 21.258C120.317 22.0295 119.48 22.5453 118.526 22.8054C117.578 23.0671 116.573 23.0361 115.514 22.7125ZM116.008 21.0925C116.813 21.3383 117.539 21.3342 118.184 21.0802C118.83 20.8262 119.38 20.4011 119.835 19.8049C120.29 19.2087 120.638 18.5183 120.877 17.7337C121.117 16.9492 121.215 16.18 121.172 15.4262C121.13 14.6724 120.912 14.0073 120.52 13.4309C120.128 12.8544 119.53 12.4433 118.725 12.1975C117.92 11.9517 117.194 11.9584 116.547 12.2174C115.899 12.4765 115.347 12.9067 114.891 13.508C114.434 14.1094 114.086 14.8023 113.847 15.5869C113.607 16.3714 113.51 17.138 113.554 17.8867C113.598 18.6354 113.817 19.2954 114.211 19.8668C114.604 20.4381 115.204 20.8467 116.008 21.0925Z" fill="white"/>
<path d="M124.084 25.5865L129.472 14.5596L131.109 15.3593L130.295 17.0248L130.41 17.081C130.878 16.6336 131.458 16.3686 132.15 16.286C132.843 16.2034 133.519 16.3235 134.18 16.6462C134.304 16.707 134.458 16.7854 134.643 16.8814C134.827 16.9774 134.965 17.0535 135.056 17.1099L134.214 18.8328C134.164 18.7904 134.042 18.7046 133.851 18.5753C133.666 18.4436 133.461 18.3228 133.236 18.2129C132.7 17.951 132.167 17.8296 131.636 17.8487C131.112 17.8655 130.632 18.0104 130.196 18.2836C129.767 18.5543 129.431 18.9386 129.188 19.4363L125.779 26.4143L124.084 25.5865Z" fill="white"/>
<path d="M143.32 22.3613L142.464 23.711L137.092 20.3062L137.948 18.9564L143.32 22.3613ZM141.087 17.4653L142.68 18.4748L136.418 28.3548C136.133 28.8047 135.984 29.1835 135.972 29.4912C135.967 29.7972 136.044 30.054 136.203 30.2617C136.368 30.4677 136.568 30.6448 136.802 30.7931C136.978 30.9043 137.127 30.9866 137.251 31.0399C137.378 31.0887 137.479 31.1277 137.556 31.157L136.973 32.793C136.839 32.7651 136.663 32.71 136.443 32.6279C136.221 32.5503 135.962 32.4173 135.665 32.2291C135.215 31.944 134.836 31.5678 134.526 31.1006C134.221 30.6362 134.053 30.1162 134.02 29.5407C133.992 28.9679 134.169 28.3801 134.552 27.7773L141.087 17.4653Z" fill="white"/>
<path d="M150.101 27.5979L149.113 28.8536L143.914 24.7617L144.902 23.506L150.101 27.5979ZM138.869 34.3753L147.507 23.4006C147.942 22.8481 148.434 22.4898 148.984 22.3257C149.533 22.1616 150.087 22.1506 150.647 22.2926C151.206 22.4346 151.716 22.6868 152.176 23.0492C152.541 23.3358 152.815 23.599 152.999 23.8388C153.183 24.0786 153.312 24.2681 153.385 24.4073L151.95 25.3521C151.894 25.2676 151.814 25.1539 151.71 25.0108C151.61 24.871 151.453 24.7171 151.24 24.549C150.75 24.1636 150.299 24.0087 149.887 24.0843C149.479 24.1632 149.088 24.4413 148.712 24.9184L140.35 35.5415L138.869 34.3753Z" fill="white"/>
<path d="M147.856 42.8115C147.096 42.0051 146.621 41.1168 146.431 40.1465C146.245 39.18 146.337 38.2011 146.705 37.2098C147.078 36.2222 147.725 35.2938 148.648 34.4244C149.578 33.5477 150.549 32.9511 151.561 32.6345C152.577 32.3218 153.561 32.287 154.515 32.5302C155.472 32.7772 156.331 33.3039 157.09 34.1103C157.85 34.9167 158.323 35.8031 158.509 36.7695C158.699 37.7398 158.606 38.7206 158.229 39.7117C157.857 40.7068 157.205 41.6426 156.275 42.5193C155.352 43.3887 154.385 43.9779 153.374 44.287C152.366 44.5999 151.383 44.6329 150.426 44.3858C149.472 44.1427 148.615 43.6179 147.856 42.8115ZM149.089 41.6499C149.666 42.2624 150.298 42.6185 150.984 42.718C151.671 42.8176 152.36 42.7213 153.05 42.4291C153.741 42.1368 154.385 41.7095 154.982 41.1469C155.579 40.5844 156.046 39.9652 156.382 39.2894C156.719 38.6136 156.86 37.9282 156.805 37.2332C156.751 36.5382 156.435 35.8845 155.858 35.2719C155.28 34.6594 154.647 34.3052 153.956 34.2093C153.266 34.1134 152.573 34.2133 151.878 34.5092C151.184 34.8051 150.538 35.2343 149.941 35.7968C149.344 36.3594 148.879 36.9767 148.546 37.6489C148.213 38.321 148.076 39.0028 148.135 39.6941C148.194 40.3854 148.511 41.0373 149.089 41.6499Z" fill="white"/>
<path d="M168.195 41.5067L154.903 51.0513L153.803 49.5196L167.095 39.975L168.195 41.5067Z" fill="white"/>
<path d="M157.02 54.2434L167.507 47.8689L168.487 49.4802L157.999 55.8547L157.02 54.2434ZM169.753 47.6258C169.562 47.3117 169.505 46.9759 169.58 46.6182C169.659 46.2652 169.848 45.9973 170.148 45.8147C170.449 45.6321 170.774 45.5873 171.123 45.6803C171.476 45.7779 171.747 45.9837 171.938 46.2978C172.129 46.6118 172.185 46.9454 172.107 47.2985C172.031 47.6561 171.843 47.9262 171.543 48.1088C171.242 48.2914 170.916 48.334 170.564 48.2364C170.214 48.1434 169.944 47.9399 169.753 47.6258Z" fill="white"/>
<path d="M161.881 64.0027C161.437 62.9875 161.289 61.9912 161.438 61.0137C161.588 60.041 162.004 59.1501 162.685 58.3409C163.368 57.5365 164.29 56.8805 165.452 56.3727C166.624 55.8608 167.739 55.6262 168.798 55.6689C169.86 55.7166 170.798 56.0155 171.614 56.5657C172.432 57.1208 173.063 57.906 173.507 58.9212C173.951 59.9364 174.097 60.9303 173.947 61.903C173.799 62.8805 173.381 63.7724 172.692 64.5789C172.007 65.3903 171.078 66.052 169.906 66.564C168.745 67.0717 167.636 67.3007 166.579 67.2509C165.525 67.206 164.589 66.906 163.77 66.3509C162.954 65.8007 162.325 65.0179 161.881 64.0027ZM163.433 63.3243C163.77 64.0955 164.245 64.6436 164.858 64.9687C165.471 65.2937 166.152 65.435 166.901 65.3926C167.649 65.3502 168.4 65.1647 169.151 64.8362C169.903 64.5076 170.551 64.0819 171.096 63.559C171.64 63.0361 172.004 62.4383 172.187 61.7655C172.369 61.0928 172.292 60.3708 171.955 59.5996C171.618 58.8284 171.14 58.2814 170.523 57.9585C169.905 57.6355 169.219 57.4964 168.465 57.5409C167.712 57.5855 166.959 57.772 166.207 58.1006C165.456 58.4291 164.81 58.8537 164.27 59.3745C163.73 59.8953 163.372 60.491 163.194 61.1616C163.016 61.8323 163.096 62.5532 163.433 63.3243Z" fill="white"/>
<path d="M172.929 84.5988L173.158 86.7601L170.966 88.8241L170.381 89.3681L167.076 92.4499L166.847 90.2887L169.042 88.2565L169.599 87.7476L172.929 84.5988ZM176.808 92.0943C175.092 92.276 173.576 92.1232 172.26 91.6358C170.944 91.1484 169.89 90.4003 169.098 89.3915C168.305 88.3826 167.836 87.1843 167.689 85.7965C167.542 84.4086 167.75 83.1385 168.314 81.9861C168.877 80.8337 169.752 79.8815 170.936 79.1293C172.12 78.3772 173.571 77.9103 175.287 77.7286C177.003 77.5469 178.519 77.6997 179.835 78.1871C181.151 78.6745 182.205 79.4226 182.997 80.4314C183.79 81.4402 184.26 82.6386 184.406 84.0264C184.553 85.4142 184.345 86.6844 183.781 87.8368C183.218 88.9892 182.344 89.9414 181.159 90.6935C179.975 91.4457 178.524 91.9126 176.808 92.0943ZM176.606 90.1873C178.015 90.0382 179.18 89.6765 180.099 89.1024C181.019 88.5337 181.686 87.823 182.099 86.9704C182.513 86.1231 182.667 85.2068 182.563 84.2216C182.459 83.2363 182.115 82.3701 181.533 81.623C180.951 80.8811 180.15 80.3258 179.131 79.957C178.112 79.5935 176.898 79.4863 175.489 79.6355C174.08 79.7847 172.915 80.1437 171.995 80.7125C171.076 81.2866 170.409 81.9973 169.996 82.8445C169.582 83.6971 169.428 84.616 169.532 85.6013C169.637 86.5866 169.98 87.4501 170.562 88.192C171.144 88.9391 171.945 89.4944 172.964 89.8579C173.983 90.2267 175.197 90.3365 176.606 90.1873Z" fill="white"/>
<path d="M172.568 105.284L179.779 106.074L179.574 107.949L167.374 106.612L167.58 104.737L169.645 104.964L169.659 104.836C169.07 104.483 168.592 103.98 168.224 103.329C167.862 102.678 167.731 101.892 167.832 100.971C167.915 100.208 168.156 99.549 168.555 98.9925C168.959 98.4366 169.518 98.0264 170.233 97.7618C170.953 97.4978 171.832 97.4226 172.87 97.5364L180.622 98.386L180.417 100.26L172.792 99.4247C171.902 99.3272 171.165 99.4983 170.581 99.938C169.997 100.383 169.662 100.995 169.576 101.773C169.525 102.239 169.593 102.726 169.778 103.234C169.963 103.747 170.284 104.195 170.74 104.577C171.196 104.965 171.805 105.2 172.568 105.284Z" fill="white"/>
<path d="M166.416 110.63L178.333 113.562L177.883 115.393L165.966 112.461L166.416 110.63ZM180.09 114.982C180.178 114.625 180.376 114.347 180.682 114.149C180.988 113.955 181.311 113.9 181.653 113.984C181.994 114.068 182.255 114.267 182.436 114.58C182.615 114.898 182.661 115.236 182.573 115.593C182.485 115.95 182.289 116.225 181.983 116.419C181.676 116.618 181.352 116.675 181.011 116.591C180.67 116.507 180.409 116.306 180.23 115.987C180.049 115.674 180.003 115.339 180.09 114.982Z" fill="white"/>
<path d="M162.939 120.932C163.357 119.86 163.969 119.035 164.777 118.458C165.585 117.881 166.514 117.557 167.565 117.486C168.616 117.414 169.712 117.601 170.854 118.046C172.015 118.498 172.957 119.11 173.68 119.883C174.405 120.663 174.869 121.535 175.07 122.5C175.275 123.471 175.177 124.473 174.775 125.506C174.462 126.31 174.03 126.976 173.481 127.506C172.932 128.035 172.31 128.401 171.613 128.605C170.917 128.808 170.192 128.82 169.438 128.641L170.122 126.884C170.696 126.953 171.273 126.835 171.855 126.53C172.44 126.231 172.883 125.695 173.185 124.921C173.451 124.236 173.506 123.566 173.35 122.91C173.197 122.262 172.853 121.668 172.32 121.129C171.79 120.597 171.093 120.162 170.229 119.826C169.346 119.482 168.522 119.322 167.759 119.344C166.993 119.372 166.33 119.571 165.769 119.941C165.205 120.317 164.788 120.852 164.518 121.547C164.34 122.003 164.258 122.449 164.272 122.883C164.286 123.317 164.391 123.721 164.589 124.095C164.786 124.469 165.072 124.792 165.446 125.063L164.762 126.821C164.126 126.458 163.613 125.976 163.225 125.373C162.84 124.777 162.613 124.097 162.545 123.333C162.479 122.576 162.611 121.776 162.939 120.932Z" fill="white"/>
<path d="M162.624 132.649L164.63 133.841L164.43 134.168L166.285 141.601L165.066 143.591L163.122 135.691L163.206 135.554L162.624 132.649ZM159.727 128.813L173.68 137.361L172.695 138.969L158.742 130.421L159.727 128.813ZM155.653 135.462L163.336 134.547L163.752 136.376L154.401 137.506L155.653 135.462Z" fill="white"/>
<path d="M158.651 157.622L145.798 150.683L145.656 150.812L151.312 164.278L149.773 165.674L143.23 149.517L144.745 148.143L160.189 156.226L158.651 157.622Z" fill="white"/>
<path d="M136.022 155.159L142.844 165.362L141.276 166.41L134.455 156.207L136.022 155.159ZM143.183 167.595C143.489 167.391 143.822 167.318 144.183 167.379C144.539 167.442 144.814 167.619 145.01 167.911C145.205 168.204 145.264 168.526 145.186 168.88C145.104 169.236 144.91 169.516 144.605 169.72C144.299 169.925 143.968 169.995 143.612 169.932C143.252 169.872 142.974 169.696 142.778 169.404C142.583 169.111 142.526 168.787 142.608 168.431C142.686 168.078 142.878 167.799 143.183 167.595Z" fill="white"/>
<path d="M126.38 160.49C127.439 159.964 128.469 159.743 129.469 159.829C130.467 159.922 131.383 160.287 132.218 160.925C133.05 161.57 133.746 162.456 134.306 163.581C134.865 164.707 135.153 165.801 135.17 166.864C135.184 167.933 134.941 168.893 134.441 169.742C133.939 170.598 133.192 171.273 132.2 171.766C131.628 172.051 131.015 172.236 130.362 172.323C129.709 172.41 129.047 172.352 128.376 172.151C127.707 171.954 127.062 171.572 126.442 171.006C125.821 170.44 125.256 169.644 124.746 168.619L124.391 167.903L132.862 163.692L133.587 165.152L126.833 168.509C127.141 169.13 127.541 169.621 128.03 169.984C128.516 170.35 129.055 170.561 129.648 170.617C130.236 170.676 130.835 170.553 131.446 170.25C132.118 169.915 132.617 169.459 132.943 168.881C133.266 168.31 133.427 167.694 133.426 167.035C133.425 166.375 133.274 165.742 132.973 165.136L132.489 164.163C132.076 163.333 131.584 162.701 131.011 162.266C130.435 161.838 129.815 161.602 129.15 161.558C128.488 161.518 127.816 161.668 127.134 162.007C126.691 162.227 126.321 162.488 126.025 162.79C125.726 163.099 125.509 163.445 125.372 163.829C125.238 164.217 125.194 164.637 125.24 165.09L123.381 165.443C123.278 164.804 123.325 164.174 123.522 163.553C123.721 162.936 124.06 162.363 124.54 161.833C125.023 161.307 125.636 160.86 126.38 160.49Z" fill="white"/>
<path d="M116.193 164.982L122.746 176.011L120.822 176.483L116.008 167.989L115.884 168.019L115.576 177.769L113.62 178.249L108.876 169.77L108.752 169.8L108.405 179.527L106.481 179.999L107.191 167.189L108.991 166.747L113.843 175.265L114.03 175.22L114.392 165.423L116.193 164.982Z" fill="white"/>
<path d="M93.027 168.412L91.7407 184.725L86.2287 184.29C84.949 184.189 83.9211 183.876 83.145 183.35C82.3633 182.828 81.8067 182.162 81.4753 181.35C81.1439 180.539 81.0161 179.652 81.0918 178.691C81.1676 177.73 81.433 176.872 81.8879 176.117C82.3375 175.362 82.987 174.783 83.8363 174.379C84.6852 173.981 85.7442 173.832 87.0134 173.933L90.9642 174.244L90.826 175.996L86.9389 175.69C86.0627 175.621 85.3472 175.717 84.7923 175.977C84.2374 176.238 83.8202 176.617 83.5406 177.113C83.2553 177.614 83.0869 178.191 83.0354 178.845C82.9839 179.498 83.06 180.091 83.2636 180.626C83.462 181.16 83.8178 181.594 84.3311 181.928C84.844 182.268 85.5438 182.473 86.4306 182.543L89.9035 182.816L91.0516 168.256L93.027 168.412Z" fill="#D5002E"/>
<path d="M73.699 165.221C74.7655 165.522 75.6298 166.039 76.2918 166.773C76.9487 167.506 77.3743 168.392 77.5685 169.432C77.7576 170.47 77.6803 171.6 77.3367 172.82C76.9901 174.051 76.4646 175.062 75.7601 175.854C75.0504 176.645 74.2242 177.181 73.2814 177.464C72.3335 177.745 71.3263 177.735 70.2598 177.435C69.1934 177.134 68.3317 176.618 67.6747 175.885C67.0127 175.151 66.5879 174.262 66.4002 173.218C66.2075 172.173 66.2844 171.036 66.6309 169.805C66.9745 168.585 67.5004 167.582 68.2086 166.796C68.9117 166.009 69.7372 165.475 70.6851 165.194C71.6279 164.912 72.6326 164.921 73.699 165.221ZM73.2399 166.852C72.4298 166.624 71.7048 166.644 71.0648 166.912C70.4249 167.18 69.884 167.617 69.4422 168.223C69.0004 168.829 68.6683 169.527 68.4459 170.316C68.2236 171.106 68.142 171.877 68.2012 172.63C68.2604 173.382 68.4923 174.043 68.8969 174.61C69.3015 175.178 69.9089 175.576 70.719 175.804C71.5291 176.032 72.2548 176.01 72.8962 175.737C73.5376 175.463 74.0799 175.021 74.5232 174.41C74.9664 173.799 75.2992 173.098 75.5216 172.309C75.7439 171.519 75.8248 170.751 75.7641 170.003C75.7035 169.256 75.4702 168.601 75.0641 168.038C74.6581 167.475 74.05 167.08 73.2399 166.852Z" fill="#D5002E"/>
<path d="M65.07 162.537L59.9245 173.679L58.2706 172.915L59.0478 171.232L58.9317 171.179C58.474 171.636 57.8999 171.914 57.2094 172.011C56.5189 172.109 55.8399 172.004 55.1726 171.696C55.0468 171.638 54.8908 171.563 54.7044 171.471C54.518 171.379 54.3787 171.306 54.2865 171.251L55.0905 169.51C55.1418 169.552 55.2647 169.635 55.4593 169.76C55.6468 169.888 55.8541 170.004 56.0814 170.109C56.6231 170.359 57.1591 170.469 57.6897 170.438C58.2131 170.41 58.6897 170.254 59.1195 169.972C59.5422 169.692 59.8697 169.3 60.1019 168.797L63.3581 161.746L65.07 162.537Z" fill="#D5002E"/>
<path d="M45.8987 166.173L46.7248 164.805L52.169 168.093L51.3429 169.461L45.8987 166.173ZM48.236 171.02L46.6219 170.045L52.6693 160.032C52.9446 159.576 53.0851 159.194 53.0905 158.886C53.0887 158.58 53.0063 158.325 52.8433 158.121C52.6731 157.919 52.4694 157.746 52.2323 157.603C52.0545 157.495 51.9031 157.416 51.7781 157.366C51.6503 157.32 51.5481 157.283 51.4714 157.255L52.0189 155.607C52.1531 155.632 52.3306 155.683 52.5515 155.76C52.7751 155.833 53.0373 155.961 53.3383 156.142C53.7942 156.418 54.1819 156.786 54.5012 157.246C54.8159 157.704 54.9958 158.22 55.0407 158.795C55.0811 159.367 54.9167 159.958 54.5477 160.569L48.236 171.02Z" fill="#D5002E"/>
<path d="M39.0106 161.087L39.9716 159.811L45.2573 163.789L44.2963 165.066L39.0106 161.087ZM50.0938 154.069L41.6944 165.228C41.2716 165.79 40.7873 166.158 40.2415 166.334C39.6958 166.51 39.1417 166.533 38.5795 166.403C38.0172 166.273 37.502 166.032 37.0338 165.68C36.6636 165.401 36.3838 165.144 36.1946 164.908C36.0054 164.672 35.8726 164.486 35.7961 164.348L37.2104 163.373C37.2678 163.456 37.3502 163.568 37.4575 163.709C37.5606 163.846 37.7207 163.997 37.9378 164.16C38.4357 164.535 38.8898 164.68 39.3001 164.596C39.7062 164.508 40.0918 164.221 40.457 163.736L48.5872 152.935L50.0938 154.069Z" fill="#D5002E"/>
<path d="M40.9251 145.827C41.7021 146.617 42.1959 147.495 42.4064 148.461C42.6132 149.423 42.543 150.403 42.1958 151.402C41.8449 152.398 41.2175 153.34 40.3137 154.229C39.4024 155.125 38.4443 155.743 37.4396 156.081C36.4312 156.416 35.4476 156.472 34.4889 156.249C33.5265 156.023 32.6568 155.515 31.8798 154.725C31.1029 153.935 30.611 153.059 30.4042 152.097C30.1936 151.131 30.2657 150.148 30.6205 149.149C30.9715 148.146 31.6027 147.197 32.514 146.3C33.4178 145.411 34.372 144.801 35.3767 144.47C36.3776 144.136 37.3592 144.082 38.3217 144.308C39.2803 144.531 40.1482 145.037 40.9251 145.827ZM39.7176 147.015C39.1274 146.415 38.488 146.072 37.7994 145.988C37.1108 145.903 36.4243 146.014 35.74 146.321C35.0557 146.628 34.4212 147.069 33.8364 147.644C33.2516 148.22 32.7982 148.849 32.4762 149.532C32.1542 150.214 32.028 150.903 32.0976 151.596C32.1673 152.29 32.4972 152.937 33.0874 153.537C33.6776 154.137 34.3189 154.477 35.0113 154.558C35.7037 154.639 36.394 154.524 37.082 154.214C37.7701 153.903 38.4066 153.46 38.9914 152.885C39.5762 152.309 40.0277 151.682 40.3459 151.003C40.6641 150.324 40.7865 149.639 40.713 148.949C40.6396 148.26 40.3078 147.615 39.7176 147.015Z" fill="#D5002E"/>
<path d="M20.622 147.574L33.7041 137.744L34.8369 139.251L21.7548 149.081L20.622 147.574Z" fill="#D5002E"/>
<path d="M31.5146 134.592L21.1673 141.192L20.1533 139.602L30.5006 133.003L31.5146 134.592ZM18.9272 141.484C19.1248 141.793 19.1897 142.128 19.1219 142.487C19.0512 142.842 18.8676 143.114 18.5712 143.303C18.2748 143.492 17.9509 143.544 17.5994 143.458C17.2451 143.368 16.9692 143.168 16.7715 142.858C16.5739 142.549 16.5104 142.216 16.5811 141.862C16.649 141.502 16.8311 141.228 17.1275 141.039C17.4239 140.85 17.7493 140.801 18.1036 140.891C18.455 140.976 18.7296 141.174 18.9272 141.484Z" fill="#D5002E"/>
<path d="M26.4493 124.953C26.9151 125.958 27.0846 126.951 26.9578 127.931C26.8287 128.907 26.4326 129.807 25.7694 130.631C25.104 131.45 24.1962 132.126 23.0459 132.659C21.886 133.197 20.7761 133.456 19.7161 133.436C18.6539 133.412 17.7089 133.133 16.8811 132.601C16.051 132.064 15.403 131.293 14.9371 130.288C14.4713 129.282 14.3029 128.292 14.432 127.316C14.5588 126.336 14.9573 125.435 15.6276 124.614C16.2956 123.787 17.2096 123.105 18.3695 122.568C19.5197 122.035 20.6235 121.782 21.6809 121.808C22.736 121.83 23.6786 122.11 24.5087 122.647C25.3366 123.179 25.9834 123.948 26.4493 124.953ZM24.9124 125.665C24.5585 124.901 24.0716 124.364 23.4517 124.052C22.8318 123.741 22.148 123.614 21.4003 123.673C20.6526 123.732 19.9066 123.934 19.1623 124.279C18.418 124.624 17.7794 125.064 17.2463 125.598C16.7133 126.133 16.3629 126.739 16.195 127.415C16.0271 128.092 16.1201 128.812 16.474 129.576C16.8279 130.339 17.3172 130.876 17.942 131.185C18.5667 131.494 19.2553 131.618 20.0079 131.557C20.7604 131.496 21.5088 131.293 22.2531 130.948C22.9974 130.603 23.6336 130.165 24.1618 129.632C24.69 129.1 25.0356 128.496 25.1987 127.822C25.3617 127.148 25.2663 126.429 24.9124 125.665Z" fill="#D5002E"/>
<path d="M14.95 104.589L14.6747 102.433L16.8215 100.322L17.3948 99.7655L20.633 96.6131L20.9084 98.7689L18.7575 100.848L18.2118 101.369L14.95 104.589ZM10.9103 97.1785C12.6223 96.9598 14.1412 97.0799 15.4672 97.5389C16.7931 97.9978 17.8631 98.723 18.6771 99.7145C19.4911 100.706 19.9865 101.894 20.1634 103.278C20.3402 104.663 20.1593 105.937 19.6207 107.101C19.0821 108.265 18.2288 109.236 17.0608 110.014C15.8928 110.791 14.4528 111.289 12.7409 111.508C11.0289 111.727 9.50999 111.607 8.18405 111.148C6.85811 110.689 5.78813 109.964 4.97411 108.972C4.16009 107.981 3.66466 106.793 3.48782 105.408C3.31097 104.024 3.49187 102.75 4.03049 101.585C4.56912 100.421 5.42243 99.4503 6.59043 98.6728C7.75843 97.8953 9.19839 97.3972 10.9103 97.1785ZM11.1533 99.0807C9.74784 99.2602 8.59168 99.6469 7.68482 100.241C6.77729 100.829 6.12615 101.554 5.73139 102.415C5.33596 103.271 5.20102 104.191 5.32657 105.174C5.45211 106.156 5.81418 107.015 6.41278 107.749C7.0107 108.478 7.82316 109.016 8.85016 109.363C9.87649 109.705 11.0924 109.785 12.4979 109.606C13.9034 109.426 15.0599 109.042 15.9674 108.454C16.8743 107.86 17.5254 107.135 17.9208 106.279C18.3156 105.418 18.4502 104.496 18.3246 103.513C18.1991 102.53 17.8374 101.674 17.2394 100.945C16.6408 100.211 15.8284 99.6729 14.8021 99.3315C13.775 98.9847 12.5588 98.9011 11.1533 99.0807Z" fill="white"/>
<path d="M14.8681 83.9058L7.64095 83.2713L7.80587 81.3929L20.0316 82.4662L19.8667 84.3447L17.7972 84.163L17.786 84.2903C18.3817 84.6314 18.8705 85.1235 19.2525 85.7666C19.6292 86.4092 19.7771 87.1922 19.696 88.1155C19.6289 88.8796 19.4021 89.5441 19.0157 90.1091C18.6239 90.6736 18.0735 91.0958 17.3645 91.3758C16.6501 91.6553 15.773 91.7494 14.7329 91.6581L6.96451 90.9761L7.12943 89.0976L14.7705 89.7685C15.6619 89.8467 16.3949 89.6598 16.9693 89.2076C17.5442 88.7501 17.8659 88.1313 17.9344 87.3513C17.9754 86.8843 17.8977 86.3989 17.7013 85.8951C17.5053 85.3859 17.1751 84.9452 16.7105 84.5729C16.2463 84.1953 15.6322 83.9729 14.8681 83.9058Z" fill="white"/>
<path d="M20.8986 78.4426L8.91975 75.7731L9.3299 73.9326L21.3088 76.6021L20.8986 78.4426ZM7.13182 74.3924C7.05187 74.7511 6.86075 75.0332 6.55846 75.2387C6.25733 75.439 5.93519 75.5009 5.59204 75.4245C5.2489 75.348 4.98353 75.1552 4.79594 74.846C4.60951 74.5315 4.55627 74.195 4.63621 73.8362C4.71616 73.4775 4.9067 73.1979 5.20783 72.9976C5.51012 72.7921 5.83284 72.7276 6.17599 72.8041C6.51913 72.8806 6.78392 73.076 6.97035 73.3904C7.15794 73.6996 7.21176 74.0336 7.13182 74.3924Z" fill="white"/>
<path d="M24.156 68.0434C23.7619 69.1244 23.1674 69.9622 22.3723 70.5568C21.5772 71.1514 20.6551 71.4956 19.6061 71.5895C18.557 71.6833 17.457 71.5203 16.3059 71.1007C15.1349 70.6738 14.1799 70.0819 13.441 69.3249C12.6989 68.5611 12.2165 67.6992 11.9938 66.7393C11.768 65.7725 11.8448 64.7686 12.2243 63.7277C12.5199 62.9169 12.9364 62.241 13.4738 61.6999C14.0113 61.1588 14.6259 60.779 15.3179 60.5607C16.0098 60.3424 16.7343 60.3145 17.4914 60.4771L16.8456 62.2487C16.2709 62.1923 15.696 62.3229 15.1209 62.6405C14.5427 62.9513 14.1113 63.4971 13.8267 64.2778C13.5749 64.9684 13.5343 65.6396 13.7049 66.2915C13.8723 66.9365 14.2284 67.5227 14.7732 68.0501C15.3147 68.5707 16.0209 68.9898 16.8917 69.3072C17.7825 69.632 18.6093 69.7746 19.3721 69.7352C20.1367 69.6908 20.7956 69.4774 21.3488 69.0951C21.9039 68.7079 22.3092 68.1639 22.5646 67.4633C22.7324 67.0029 22.8047 66.5558 22.7814 66.1221C22.7581 65.6883 22.6437 65.2866 22.4383 64.9169C22.2329 64.5472 21.9401 64.2307 21.5598 63.9674L22.2057 62.1958C22.8498 62.544 23.3726 63.0152 23.7739 63.6094C24.1721 64.1968 24.4137 64.8717 24.4986 65.634C24.5804 66.3895 24.4662 67.1927 24.156 68.0434Z" fill="white"/>
<path d="M24.2147 56.3275L22.1833 55.1796L22.3765 54.8483L20.3609 47.4567L21.5365 45.4414L23.6509 53.2977L23.5704 53.4357L24.2147 56.3275ZM27.194 60.1003L13.0592 51.8556L14.0092 50.2268L28.1441 58.4714L27.194 60.1003ZM31.1231 53.3641L23.4623 54.4456L23.0068 52.6259L32.3308 51.2936L31.1231 53.3641Z" fill="white"/>
<path d="M27.6481 31.2758L40.6474 37.9364L40.7867 37.8045L34.8415 24.4628L36.3498 23.0343L43.2398 39.0467L41.7547 40.4533L26.1398 32.7043L27.6481 31.2758Z" fill="white"/>
<path d="M50.322 33.252L43.2812 23.1997L44.8257 22.1179L51.8664 32.1702L50.322 33.252ZM42.8931 20.9743C42.5921 21.1851 42.2606 21.2644 41.8989 21.2122C41.5415 21.1568 41.2619 20.9852 41.0602 20.6972C40.8585 20.4093 40.7928 20.0879 40.8629 19.7331C40.9375 19.3753 41.1252 19.0909 41.4263 18.8801C41.7273 18.6692 42.0566 18.5914 42.414 18.6468C42.7757 18.699 43.0575 18.8691 43.2592 19.1571C43.4608 19.445 43.5244 19.7679 43.4499 20.1258C43.3797 20.4806 43.1941 20.7634 42.8931 20.9743Z" fill="white"/>
<path d="M59.8445 27.7138C58.7973 28.2631 57.7728 28.5059 56.7708 28.442C55.7711 28.3709 54.8471 28.0256 53.9987 27.4059C53.1526 26.7791 52.4375 25.9091 51.8536 24.7958C51.2696 23.6826 50.9577 22.595 50.918 21.5332C50.8805 20.4641 51.1024 19.4996 51.5836 18.6396C52.067 17.7724 52.7994 17.0815 53.7805 16.5668C54.3465 16.2699 54.955 16.071 55.6059 15.9702C56.2568 15.8693 56.92 15.9124 57.5955 16.0994C58.2686 16.2817 58.9214 16.649 59.554 17.2014C60.1867 17.7537 60.769 18.537 61.301 19.5512L61.6722 20.2587L53.2947 24.6534L52.5375 23.21L59.2168 19.7061C58.8952 19.0929 58.4855 18.61 57.9878 18.2576C57.4948 17.9026 56.9513 17.7035 56.3572 17.6603C55.7678 17.6146 55.1712 17.7501 54.5674 18.0669C53.9023 18.4158 53.4134 18.8827 53.1008 19.4678C52.7904 20.0457 52.6428 20.6645 52.658 21.3242C52.6732 21.9838 52.838 22.6132 53.1522 23.2123L53.657 24.1746C54.0876 24.9953 54.5941 25.6169 55.1765 26.0392C55.7612 26.4543 56.3862 26.6768 57.0515 26.7067C57.7144 26.7319 58.3831 26.5676 59.0576 26.2138C59.4963 25.9836 59.8604 25.7145 60.1498 25.4062C60.4415 25.0908 60.6515 24.7401 60.7798 24.354C60.9056 23.9631 60.9403 23.5419 60.8839 23.0903L62.7347 22.6969C62.8519 23.3332 62.8189 23.964 62.6357 24.5894C62.45 25.2102 62.123 25.7907 61.6546 26.3312C61.1838 26.8669 60.5804 27.3278 59.8445 27.7138Z" fill="white"/>
<path d="M69.9244 23.003L63.1299 12.1201L65.0436 11.6062L70.0426 19.9929L70.1661 19.9598L70.26 10.2053L72.2046 9.68304L77.1336 18.0555L77.2571 18.0223L77.3902 8.29042L79.3039 7.77647L78.8757 20.5991L77.0854 21.0799L72.0473 12.6706L71.8621 12.7203L71.7147 22.5222L69.9244 23.003Z" fill="white"/>
</svg>
