<svg width="40" height="25" viewBox="0 0 40 25" fill="none" xmlns="http://www.w3.org/2000/svg">
<rect x="0.5" y="0.5" width="39" height="24" rx="4.5" stroke="#00AD25"/>
<path d="M17.9208 8.23H18.7408V17.29H17.9208V8.23ZM15.5408 11.59H18.1608V12.27H15.5408V11.59ZM11.6608 8.94H12.4908V11.29H15.0008V8.94H15.8108V15.01H11.6608V8.94ZM12.4908 11.95V14.33H15.0008V11.95H12.4908ZM20.49 13.24H28.67V13.91H20.49V13.24ZM21.55 16.4H27.81V17.08H21.55V16.4ZM21.55 14.57H22.37V16.65H21.55V14.57ZM21.57 11.75H27.71V12.4H21.57V11.75ZM21.57 8.57H27.66V9.22H22.4V12H21.57V8.57ZM22.15 10.15H27.42V10.79H22.15V10.15Z" fill="#00AD25"/>
</svg>
